<svg xmlns="http://www.w3.org/2000/svg" aria-hidden="true" overflow="hidden" style="position:absolute;width:0;height:0">
  <defs>
    <symbol id="icon-facebook" viewBox="0 0 32 32">
      <path d="M12.135 31.588v-10.64H8.836v-4.889h3.299v-2.107c0-5.447 2.464-7.971 7.811-7.971.535 0 1.273.056 1.957.137.579.06 1.096.152 1.601.277l-.079-.017v4.433a11.261 11.261 0 0 0-.86-.048h-.01a33.081 33.081 0 0 0-.927-.012h-.053.003c-.943 0-1.679.128-2.233.412a2.272 2.272 0 0 0-.9.82l-.006.009c-.344.56-.499 1.327-.499 2.336v1.729h5.225l-.897 4.889H17.94v10.993c7.923-.957 14.061-7.703 14.061-15.883 0-8.836-7.164-16-16-16s-16 7.164-16 16c0 7.504 5.165 13.8 12.135 15.529z"/>
    </symbol>
    <symbol id="icon-instagram" viewBox="0 0 32 32">
      <path d="M9.373.112c-1.702.08-2.865.352-3.881.751-1.052.41-1.943.96-2.83 1.85S1.229 4.495.822 5.549C.428 6.567.161 7.731.086 9.434s-.092 2.251-.083 6.596c.008 4.345.027 4.889.11 6.596.081 1.702.352 2.864.751 3.881.411 1.052.96 1.943 1.851 2.83s1.782 1.432 2.838 1.84c1.018.393 2.181.661 3.885.736s2.251.092 6.595.084c4.344-.008 4.891-.028 6.597-.109s2.863-.354 3.88-.751c1.052-.411 1.944-.96 2.83-1.851s1.433-1.784 1.839-2.838c.394-1.018.662-2.181.736-3.883.075-1.708.092-2.253.084-6.597s-.028-4.889-.109-6.595-.352-2.865-.751-3.882c-.411-1.052-.96-1.942-1.85-2.83S27.505 1.227 26.452.822C25.434.428 24.271.16 22.567.086S20.316-.007 15.97.002c-4.345.008-4.889.027-6.596.11zm.187 28.924c-1.56-.068-2.407-.327-2.972-.544-.747-.288-1.28-.636-1.843-1.193s-.908-1.091-1.2-1.837c-.219-.565-.483-1.411-.556-2.971-.079-1.686-.096-2.192-.105-6.464s.007-4.777.081-6.464c.067-1.559.327-2.407.544-2.971.288-.748.635-1.28 1.193-1.842s1.091-.909 1.838-1.2c.564-.22 1.41-.482 2.969-.556 1.687-.08 2.193-.096 6.464-.105s4.778.007 6.466.081c1.559.068 2.407.326 2.971.544.748.288 1.28.634 1.842 1.193s.909 1.09 1.201 1.838c.22.562.482 1.408.556 2.968.08 1.687.099 2.193.106 6.464s-.007 4.778-.081 6.464c-.068 1.56-.327 2.407-.544 2.973-.288.747-.635 1.28-1.194 1.842s-1.091.908-1.838 1.2c-.563.22-1.41.482-2.968.557-1.687.079-2.193.096-6.466.105s-4.777-.008-6.464-.081zM22.604 7.449a1.92 1.92 0 1 0 1.92-1.923h-.004a1.92 1.92 0 0 0-1.916 1.92v.003zM7.785 16.016a8.217 8.217 0 1 0 8.2-8.232 8.216 8.216 0 0 0-8.199 8.232zm2.882-.006v-.011a5.333 5.333 0 1 1 5.344 5.333h-.012a5.333 5.333 0 0 1-5.333-5.322v-.001z"/>
    </symbol>
    <symbol id="icon-chevrons-left" viewBox="0 0 32 32">
      <path stroke-linecap="round" stroke-linejoin="round" stroke-width=".571" d="M14.667 22.667 8 16l6.667-6.667M24 22.667 17.333 16 24 9.333"/>
    </symbol>
    <symbol id="icon-chevrons-right" viewBox="0 0 32 32">
      <path stroke-linecap="round" stroke-linejoin="round" stroke-width=".571" d="M17.333 22.667 24 16l-6.667-6.667M8 22.667 14.667 16 8 9.333"/>
    </symbol>
    <symbol id="icon-circle" viewBox="0 0 32 32">
      <path stroke-linecap="round" stroke-linejoin="round" stroke-width=".571" d="M29.333 16c0 7.364-5.97 13.333-13.333 13.333S2.667 23.363 2.667 16C2.667 8.636 8.637 2.667 16 2.667S29.333 8.637 29.333 16z"/>
    </symbol>
    <symbol id="icon-circle-right" viewBox="0 0 32 32">
      <path d="M16 0C7.163 0 0 7.163 0 16s7.163 16 16 16 16-7.163 16-16S24.837 0 16 0zm0 29C8.82 29 3 23.18 3 16S8.82 3 16 3s13 5.82 13 13-5.82 13-13 13z"/>
      <path d="m11.086 22.086 2.829 2.829 8.914-8.914-8.914-8.914-2.828 2.828 6.086 6.086z"/>
    </symbol>
    <symbol id="icon-circle-left" viewBox="0 0 32 32">
      <path d="M16 32c8.837 0 16-7.163 16-16S24.837 0 16 0 0 7.163 0 16s7.163 16 16 16zm0-29c7.18 0 13 5.82 13 13s-5.82 13-13 13S3 23.18 3 16 8.82 3 16 3z"/>
      <path d="m20.914 9.914-2.829-2.829-8.914 8.914 8.914 8.914 2.828-2.828-6.086-6.086z"/>
    </symbol>

    <symbol id="icon-menu" viewBox="0 0 32 32">
      <path d="M0 2h32v4h-32zM12 8h20v4h-20zM12 20h20v4h-20zM0 14h32v4h-32zM0 26h32v4h-32z"></path>
    </symbol>

  </defs>
</svg>
