<?xml version="1.0" encoding="utf-8"?>
<!-- Generator: Adobe Illustrator 27.3.1, SVG Export Plug-In . SVG Version: 6.00 Build 0)  -->
<svg version="1.1" id="Шар_1" xmlns="http://www.w3.org/2000/svg" xmlns:xlink="http://www.w3.org/1999/xlink" x="0px" y="0px"
	 viewBox="0 0 820 350" style="enable-background:new 0 0 820 350;" xml:space="preserve">
<style type="text/css">
	.st0{fill:#FFE9FB;}
</style>
<g>
	<path class="st0" d="M125.6,91.9c21.8,0,40,8.3,54.8,24.8c14.8,16.5,22.2,37,22.2,61.5c0,27.7-7.7,50.1-23,67.3
		s-35.2,25.8-59.6,25.8c-19.1,0-37.8-6-56-18.1v56c0,14,0.9,23.6,2.8,29s5.5,8.9,10.9,10.5H22.9c5.4-1.6,9-5.1,10.9-10.5
		c1.9-5.4,2.8-15,2.8-29l-0.4-183.8c0-2.7-1.1-5.4-3.2-8.3c-2.1-2.8-4.4-5-6.9-6.7l-3.2-2L64,91.9v31.8
		C86,102.3,106.6,91.7,125.6,91.9z M120,268c17.7,0,31.6-6.6,41.5-19.9s14.9-29.6,14.9-49c0-10.7-1.3-21.2-3.8-31.4
		c-2.6-10.2-6.4-19.8-11.5-28.8s-12-16.2-20.8-21.8c-8.7-5.5-18.7-8.3-30-8.3c-15.3,0-30.8,7.1-46.3,21.4v114.1
		C83.3,260.1,102,268,120,268z"/>
	<path class="st0" d="M387.2,224.1c0,7.8,0.7,14.6,2,20.6c1.3,5.9,3,10.3,4.8,13.1c1.9,2.8,3.8,5.1,5.6,6.9c1.9,1.8,3.5,2.8,4.8,3
		l1.6,0.4h-15.3c-9.4,0-16.8-3.3-22.2-9.9c-5.4-6.6-8.1-15-8.1-25.2v-19c-0.3,1.6-0.9,3.6-1.8,6s-3.2,6.7-6.9,12.9
		s-8,11.6-13.1,16.3s-12.3,9-21.6,12.9s-19.5,5.8-30.8,5.8c-13.7,0-25.3-3.8-34.7-11.3c-9.4-7.5-14.1-17.7-14.1-30.6
		c0-7.5,1.8-14.4,5.4-20.8s7.9-11.5,12.9-15.5c5-4,11.4-7.9,19.3-11.5s14.6-6.2,20-7.9c5.4-1.6,12.1-3.5,20.1-5.6
		c3.2-0.8,8.6-1.8,16.1-3s14.2-2.2,20.1-3l8.9-1.6c0-0.3,0-2.8,0-7.5s0-7.3,0-7.9c0-11.8-3.1-22.2-9.3-31s-15-13.3-26.6-13.3
		c-7,0-13.3,1.9-18.9,5.6c-5.6,3.8-10.1,7.9-13.3,12.5c-3.2,4.6-6.9,9.7-11.1,15.3c-4.2,5.6-8,9.7-11.5,12.1
		c-3.5,2.1-7,2.6-10.7,1.2c-3.6-1.3-5.8-3.9-6.4-7.7c-0.7-3.8,0.9-8.3,4.6-13.7c5.9-7.2,15.2-14.2,27.8-21
		c12.6-6.7,26.2-10.1,40.7-10.1c20.7,0,36.1,5.4,46.1,16.3c10.1,10.9,15.1,26.4,15.1,46.5L387.2,224.1L387.2,224.1z M360.6,162
		c-8.1,1.1-13.8,1.8-17.3,2.2s-9.3,1.4-17.5,3s-14.5,3.2-18.9,4.6c-4.4,1.5-9.8,3.7-16.1,6.6c-6.3,3-11.1,6-14.5,9.3
		c-3.4,3.2-6.2,7.3-8.7,12.3c-2.4,5-3.6,10.4-3.6,16.3c0,11,3.3,19.5,9.9,25.6c6.6,6,15.1,9.1,25.6,9.1c18.3,0,33-5.7,44.1-17.1
		c11.1-11.4,16.9-26.4,17.1-44.9v-27H360.6z"/>
	<path class="st0" d="M500.8,238.6l0.8,0.4c-0.3,0.8-0.8,2-1.6,3.6c-0.8,1.6-2.6,4.3-5.2,8.1c-2.7,3.8-5.5,6.9-8.5,9.5
		s-6.8,4.7-11.5,6.5s-9.5,2.1-14.3,1c-1.9-0.5-3.6-1.3-5.2-2.2c-1.6-0.9-3-2.3-4-4c-1.1-1.7-2-3.4-2.8-5s-1.5-3.6-2-6
		s-0.9-4.5-1.2-6.2c-0.3-1.7-0.5-4-0.6-6.6c-0.1-2.7-0.2-4.6-0.2-5.8s0-4.4,0-9.5V99.6h-22.2v-4.8c17.5,0,32.6-11.8,45.5-35.5
		l3.6-7.2v42.7h29.8l-0.4,4.8h-29.5v136.6c0.8,10.8,4.6,15.9,11.3,15.3C489.4,251,495.4,246.7,500.8,238.6z"/>
	<path class="st0" d="M575.8,257.5c-1.9-5.4-2.8-15-2.8-29V91.9l-41.1,16.5c9.1,5.6,13.7,13.6,13.7,23.8v96.3
		c0,14.2-0.9,24-2.8,29.2s-5.5,8.7-10.9,10.3h54.8C581.3,266.4,577.7,262.9,575.8,257.5z"/>
	<path class="st0" d="M646.3,116.5c17.5-17.5,38.6-26.2,63.5-26.2c24.8,0,46,8.7,63.5,26.2s26.2,38.6,26.2,63.5s-8.7,46-26.2,63.5
		s-38.6,26.2-63.5,26.2s-46-8.7-63.5-26.2s-26.2-38.6-26.2-63.5S628.8,134,646.3,116.5z M666.6,239.8c12,16.7,26.3,25,43.1,25
		s31.2-8.3,43.1-25c12-16.7,17.9-36.7,17.9-60.1s-6-43.4-17.9-60.1c-12-16.7-26.3-25-43.1-25s-31.2,8.3-43.1,25
		c-12,16.7-17.9,36.7-17.9,60.1S654.7,223.1,666.6,239.8z"/>
	<g>
		<path class="st0" d="M544.2,14.4c-0.9-5.5-0.6-8.2,1.1-10.1c1.8-2,4.7-2.2,5.6-2.2c0.8,0,4.5-0.1,6.7,2.2c2.2,2.4,1.7,6,1.1,10.1
			c-2.3,8.1-3.6,11.8-4.5,13.5c0,0.1-0.2,0.3-2.2,4.5l-1.1,2.2c0,0-0.4-0.8-1.1-2.2C546.4,25,544.9,18.7,544.2,14.4z"/>
		<path class="st0" d="M561.2,16c3.1-4.6,5.2-6.4,7.8-6.6c2.7-0.2,4.9,1.6,5.6,2.2c0.6,0.5,3.4,3,3.3,6.3c0,3.3-2.8,5.5-6.1,8.1
			c-7.2,4.4-10.7,6-12.5,6.7c-0.1,0-0.3,0.1-4.7,1.7c0,0-2.3,0.9-2.4,0.9c0,0,0.2-0.8,0.7-2.4C555.5,25.2,558.8,19.6,561.2,16z"/>
		<path class="st0" d="M573.2,28.8c5.5-1,8.2-0.8,10.1,0.9c2.1,1.8,2.3,4.7,2.4,5.5c0.1,0.8,0.3,4.5-2.1,6.8
			c-2.4,2.3-5.9,1.9-10.1,1.4c-8.2-2.1-11.8-3.3-13.6-4.2c-0.1,0-0.3-0.2-4.5-2.1l-2.3-1.1c0,0,0.8-0.4,2.2-1.2
			C562.6,31.3,568.9,29.6,573.2,28.8z"/>
		<path class="st0" d="M540.8,16c-3.1-4.6-5.2-6.4-7.8-6.6c-2.7-0.2-4.9,1.6-5.6,2.2c-0.6,0.5-3.4,3-3.3,6.3c0,3.3,2.8,5.5,6.1,8.1
			c7.2,4.4,10.7,6,12.5,6.7c0.1,0,0.3,0.1,4.7,1.7c0,0,2.3,0.9,2.4,0.9c0,0-0.2-0.8-0.7-2.4C546.5,25.2,543.3,19.6,540.8,16z"/>
		<path class="st0" d="M544.2,57.8c-0.9,5.5-0.6,8.2,1.1,10.1c1.8,2,4.7,2.2,5.6,2.2c0.8,0.1,4.5,0.2,6.7-2.2
			c2.2-2.4,1.7-6,1.1-10.1c-2.3-8.2-3.6-11.8-4.5-13.5c0-0.1-0.2-0.3-2.2-4.5l-1.1-2.2c0,0-0.4,0.8-1.1,2.2
			C546.4,47.2,544.9,53.4,544.2,57.8z"/>
		<path class="st0" d="M561.2,56.1c3.1,4.6,5.2,6.4,7.8,6.6c2.7,0.2,4.9-1.7,5.6-2.2c0.6-0.5,3.4-3,3.3-6.3c0-3.3-2.8-5.5-6.1-8.1
			c-7.2-4.4-10.7-6-12.5-6.7c-0.1,0-0.3-0.1-4.7-1.7c0,0-2.3-0.9-2.4-0.9c0,0,0.2,0.8,0.7,2.4C555.5,46.9,558.8,52.5,561.2,56.1z"/>
		<path class="st0" d="M540.8,56.1c-3.1,4.6-5.2,6.4-7.8,6.6c-2.7,0.2-4.9-1.7-5.6-2.2c-0.6-0.5-3.4-3-3.3-6.3
			c0-3.3,2.8-5.5,6.1-8.1c7.2-4.4,10.7-6,12.5-6.7c0.1,0,0.3-0.1,4.7-1.7c0,0,2.3-0.9,2.4-0.9c0,0-0.2,0.8-0.7,2.4
			C546.5,46.9,543.3,52.5,540.8,56.1z"/>
		<path class="st0" d="M528.9,28.8c-5.5-1-8.2-0.8-10.1,0.9c-2.1,1.8-2.3,4.7-2.4,5.5c-0.1,0.8-0.3,4.5,2.1,6.8
			c2.4,2.3,5.9,1.9,10.1,1.4c8.2-2.1,11.8-3.3,13.6-4.2c0.1,0,0.3-0.2,4.5-2.1L549,36c0,0-0.8-0.4-2.2-1.2
			C539.4,31.3,533.2,29.6,528.9,28.8z"/>
	</g>
</g>
</svg>
